<svg width="115" height="104" viewBox="0 0 115 104" fill="none" xmlns="http://www.w3.org/2000/svg">
<path d="M35.2168 0.756836C46.8907 0.686227 62.8693 -0.197535 74.1104 1.78613C74.449 1.84586 74.9063 2.04441 75.4756 2.39551C76.0369 2.74172 76.6731 3.21441 77.3623 3.78516C78.7405 4.92643 80.3004 6.43172 81.8633 8.02637C83.4248 9.61956 84.9806 11.293 86.3506 12.7686C87.7153 14.2384 88.9047 15.5219 89.7217 16.3193L104.532 32.0967L104.533 32.0977C106.038 33.6896 108.374 35.8577 110.388 38.2168C111.387 39.3879 112.285 40.5808 112.933 41.7354C113.562 42.8571 113.934 43.9062 113.967 44.8398C113.319 46.4538 111.999 48.3008 110.258 50.2871C108.49 52.3033 106.324 54.4272 104.071 56.5547C99.593 60.7847 94.7363 65.0603 92.1904 68.4219C91.926 68.7706 91.0156 69.733 90.0625 70.6914C89.5922 71.1643 89.1213 71.6266 88.7295 71.998C88.3271 72.3795 88.034 72.6401 87.9072 72.7314L87.8486 72.7734L87.8047 72.8311C85.0121 76.4267 81.6252 77.1372 77.8564 77.4248C74.1164 77.7102 69.9093 77.5627 65.875 79.625C63.946 80.553 62.1081 82.2897 60.3086 84.2129C58.48 86.1672 56.706 88.2952 54.8105 90.166C52.9247 92.0274 51.0014 93.5456 48.9639 94.2549C46.9605 94.9522 44.8133 94.8794 42.4121 93.4922C39.4457 91.5601 38.3529 89.4806 38.3262 87.3906C38.2989 85.2512 39.3829 82.9733 41.0576 80.6699C42.7254 78.3761 44.9251 76.1276 47.0234 74.0479C49.1028 71.987 51.1079 70.0692 52.3154 68.4844C55.4016 64.4318 60.2118 59.9979 64.8936 55.4805C69.5456 50.9918 74.0782 46.4143 76.4883 42.1328L76.6709 41.8076L76.4121 41.54C72.6955 37.6961 69.1898 34.4232 65.2871 30.8135L65.125 30.6641L64.9053 30.6826C60.905 31.02 56.9092 31.0088 52.8916 30.9766C48.8808 30.9444 44.8453 30.8914 40.8008 31.1514L40.7861 31.1523L40.7705 31.1543C37.8128 31.5252 32.2496 31.5911 26.5078 31.5732C20.7927 31.5555 14.9133 31.454 11.3779 31.498C9.96045 31.4827 7.98565 31.4578 6.05078 31.3115C4.17249 31.1695 2.38817 30.9151 1.19141 30.4746C0.446836 29.3778 0.344136 28.1443 0.691406 26.793C1.05578 25.3754 1.90706 23.8613 2.98828 22.335C4.06645 20.8129 5.34679 19.3154 6.54004 17.9219C7.72173 16.5419 8.83518 15.2457 9.53613 14.165C10.926 12.0217 12.1446 9.64087 13.4199 7.51758C14.6956 5.39376 16.0741 3.44114 17.877 1.90527C24.6626 0.371939 28.1371 0.680438 35.209 0.756836H35.2168Z" fill="#F2682C" stroke="#FF5F17"/>
<path d="M17.6471 1.44369C24.5802 -0.135897 28.1178 0.180006 35.2139 0.256667C37.7056 0.730788 46.1695 11.1952 48.3927 13.5477C53.88 19.3548 59.7852 25.1146 64.9473 31.181C56.8951 31.8602 48.8785 31.1331 40.8331 31.6502C34.8409 32.4017 18.4381 31.9105 11.377 31.9989C8.54256 31.9681 3.41169 31.8958 0.868231 30.8885C-2.84808 25.7845 6.40194 18.078 9.11629 13.8934C11.899 9.60239 13.8233 4.64535 17.6471 1.44369Z" fill="#F9CA14"/>
<g filter="url(#filter0_dd_2052_1280)">
<path d="M76.053 41.8877C79.1272 43.6748 84.6409 50.0469 86.138 53.416C87.1702 60.3984 83.9891 57.625 81.4842 62.8642C84.4173 66.3115 84.2718 71.0478 86.1751 73.25L88.2 73.1377C82.3523 80.667 73.9363 76.0576 66.0921 80.0762C58.7434 83.6113 52.2747 99.7832 42.1507 93.919C29.8572 85.9258 47.1975 74.3779 51.9187 68.1816C58.1506 59.998 71.3172 50.3008 76.053 41.8877Z" fill="url(#paint0_linear_2052_1280)"/>
</g>
<path d="M90.0713 15.9618L104.897 31.7543C107.834 34.8617 114.424 40.6229 114.471 44.9296C111.805 51.8095 97.6147 62.0878 92.5894 68.7235C92.0122 69.4852 88.8369 72.6786 88.1992 73.1376L86.1743 73.2499C84.271 71.0477 84.4165 66.3114 81.4834 62.8641C83.9883 57.6249 87.1694 60.3983 86.1372 53.4159C86.9395 52.8104 87.5049 52.0585 87.5849 51.0282C88.4712 39.6317 88.4399 27.2958 90.0713 15.9618Z" fill="#D92471"/>
<path d="M11.3779 31.999C18.439 31.9106 34.8418 32.4019 40.834 31.6504C40.437 34.3911 40.4214 35.4766 40.4272 38.2403C40.6099 50.999 42.9653 58.206 32.6953 67.625C25.7734 73.9678 18.8857 83.8408 11.8491 90.1445C11.3257 81.7021 11.5019 70.4864 11.6099 61.8828C11.6572 54.3047 12.1475 38.7822 11.3779 31.999Z" fill="#0DA0D9"/>
<path d="M11.3779 31.999C18.439 31.9106 34.8418 32.4019 40.834 31.6504C40.437 34.3911 40.4214 35.4766 40.4272 38.2403C35.0815 36.2383 23.2935 57.6103 12.3672 58.9629L11.6099 61.8828C11.6572 54.3047 12.1475 38.7822 11.3779 31.999Z" fill="#0EB49C"/>
<defs>
<filter id="filter0_dd_2052_1280" x="33.8262" y="41.8877" width="58.374" height="61.2998" filterUnits="userSpaceOnUse" color-interpolation-filters="sRGB">
<feFlood flood-opacity="0" result="BackgroundImageFix"/>
<feColorMatrix in="SourceAlpha" type="matrix" values="0 0 0 0 0 0 0 0 0 0 0 0 0 0 0 0 0 0 127 0" result="hardAlpha"/>
<feOffset dy="4"/>
<feGaussianBlur stdDeviation="2"/>
<feComposite in2="hardAlpha" operator="out"/>
<feColorMatrix type="matrix" values="0 0 0 0 0 0 0 0 0 0 0 0 0 0 0 0 0 0 0.25 0"/>
<feBlend mode="normal" in2="BackgroundImageFix" result="effect1_dropShadow_2052_1280"/>
<feColorMatrix in="SourceAlpha" type="matrix" values="0 0 0 0 0 0 0 0 0 0 0 0 0 0 0 0 0 0 127 0" result="hardAlpha"/>
<feOffset dy="4"/>
<feGaussianBlur stdDeviation="2"/>
<feComposite in2="hardAlpha" operator="out"/>
<feColorMatrix type="matrix" values="0 0 0 0 0 0 0 0 0 0 0 0 0 0 0 0 0 0 0.25 0"/>
<feBlend mode="normal" in2="effect1_dropShadow_2052_1280" result="effect2_dropShadow_2052_1280"/>
<feBlend mode="normal" in="SourceGraphic" in2="effect2_dropShadow_2052_1280" result="shape"/>
</filter>
<linearGradient id="paint0_linear_2052_1280" x1="51.2166" y1="63.4014" x2="80.4974" y2="80.6621" gradientUnits="userSpaceOnUse">
<stop stop-color="#713DB8"/>
<stop offset="1" stop-color="#A22F8A"/>
</linearGradient>
</defs>
</svg>
